<?xml version="1.0" encoding="UTF-8"?>
<svg id="Layer_1" xmlns="http://www.w3.org/2000/svg" version="1.1" viewBox="0 0 878.28 1304">
  <!-- Generator: Adobe Illustrator 30.5.1, SVG Export Plug-In . SVG Version: 2.1.4 Build 3)  -->
  <defs>
    <style>
      .st0 {
        fill: #12d716;
      }
    </style>
  </defs>
  <path class="st0" d="M797.9,533.62h0c44.48-.32,80.37-36.48,80.37-80.96v-255.43C878.28,88.3,789.97,0,681.05,0H205.17C91.86,0,0,91.86,0,205.17v871.06c0,125.8,101.98,227.77,227.77,227.77h456.65c107.06,0,193.85-86.79,193.85-193.85v-402.75c0-55.72-45.17-100.89-100.89-100.89h-316.31c-60.75,0-110,49.25-110,110v132.02c0,46.7,37.86,84.56,84.56,84.56h0c46.7,0,84.56-37.86,84.56-84.56v-75.47c0-5.66,4.59-10.26,10.26-10.26h169.03c9.2,0,16.66,7.46,16.66,16.66v340.57c0,17.22-13.96,31.17-31.17,31.17H222.23c-33.84,0-61.27-27.43-61.27-61.27V202.81c0-25.05,20.31-45.35,45.35-45.35h475.63c19.48,0,35.23,15.83,35.08,35.31-.39,50.9-.99,176.41-.68,260.24.17,44.82,36.73,80.93,81.55,80.6Z"/>
  <rect class="st0" x="312.08" y="242.01" width="255.42" height="69.5" rx="34.75" ry="34.75"/>
  <circle class="st0" cx="440.25" cy="1039.9" r="37.5"/>
</svg>